<svg width="60" height="60" viewBox="0 0 60 60" fill="none" xmlns="http://www.w3.org/2000/svg">
<circle cx="30" cy="30" r="30" transform="rotate(-90 30 30)" fill="#5A5A5A" fill-opacity="0.8"/>
<circle cx="30" cy="30" r="28.5" transform="rotate(-90 30 30)" stroke="white" stroke-opacity="0.8" stroke-width="3"/>
<path d="M15.8891 28.9468C15.316 29.5451 15.3365 30.4946 15.9348 31.0676L25.6841 40.4058C26.2823 40.9788 27.2319 40.9583 27.8049 40.3601C28.3779 39.7618 28.3575 38.8123 27.7592 38.2392L19.0932 29.9387L27.3937 21.2726C27.9668 20.6743 27.9463 19.7248 27.348 19.1518C26.7498 18.5787 25.8002 18.5992 25.2272 19.1975L15.8891 28.9468ZM43.6328 29.41L43.6005 27.9104L16.94 28.4847L16.9723 29.9844L17.0046 31.484L43.6651 30.9097L43.6328 29.41Z" fill="white" fill-opacity="0.8"/>
</svg>
