<svg width="1003" height="538" viewBox="0 0 1003 538" fill="none" xmlns="http://www.w3.org/2000/svg">
<rect width="1002.22" height="538" fill="#3A3A3A"/>
<path d="M117.078 243.391H125.047L105.969 310H98L117.078 243.391ZM154.859 271.047C152.266 271.047 148.422 272.203 143.328 274.516L133.156 310H125.469L138.406 264.859H143.797L144.312 268.703C150.719 265.547 155.922 263.969 159.922 263.969C164.578 263.969 167.719 265.688 169.344 269.125C176.312 265.719 182.188 264.016 186.969 264.016C194.312 264.016 197.984 267.234 197.984 273.672C197.984 276.141 197.453 279.219 196.391 282.906L188.656 310H180.969L188.844 282.484C189.375 280.547 189.641 278.906 189.641 277.562C189.641 273.219 187.25 271.047 182.469 271.047C179.594 271.047 175.547 272.219 170.328 274.562C170.266 276.312 169.656 279.234 168.5 283.328L160.859 310H153.172L161.094 282.344C161.594 280.594 161.844 279.016 161.844 277.609C161.844 273.234 159.516 271.047 154.859 271.047ZM234.078 263.969C239.078 263.969 242.672 264.812 244.859 266.5C247.047 268.188 248.141 270.578 248.141 273.672C248.141 275.391 247.812 277.438 247.156 279.812L238.484 310H233.047L232.484 305.781C227.797 309.219 223.031 310.938 218.188 310.938C214.531 310.938 211.594 309.984 209.375 308.078C207.188 306.141 206.094 303.75 206.094 300.906C206.094 299.969 206.234 299 206.516 298C207.141 295.781 208.188 293.859 209.656 292.234C211.156 290.578 212.859 289.25 214.766 288.25C216.703 287.25 218.984 286.453 221.609 285.859C224.234 285.266 226.844 284.859 229.438 284.641C232.031 284.422 234.922 284.312 238.109 284.312L239.141 280.797C239.641 279.109 239.891 277.656 239.891 276.438C239.891 272.375 236.922 270.344 230.984 270.344C227.984 270.344 223.75 271.016 218.281 272.359L218.422 266.828C224.016 264.922 229.234 263.969 234.078 263.969ZM236.469 290.125H233.656C231.906 290.125 230.375 290.156 229.062 290.219C227.781 290.281 226.234 290.453 224.422 290.734C222.641 291.016 221.125 291.406 219.875 291.906C218.656 292.406 217.516 293.156 216.453 294.156C215.391 295.125 214.672 296.281 214.297 297.625C214.172 298.031 214.109 298.5 214.109 299.031C214.109 300.656 214.844 302.047 216.312 303.203C217.812 304.328 219.719 304.891 222.031 304.891C225.969 304.891 229.797 303.375 233.516 300.344L236.469 290.125ZM287.234 263.922C290.891 263.922 294.734 265.156 298.766 267.625L300.5 264.859H305.891L292.016 313.281C291.734 314.219 291.438 315.109 291.125 315.953C290.844 316.797 290.312 318 289.531 319.562C288.781 321.156 287.938 322.594 287 323.875C286.094 325.156 284.859 326.547 283.297 328.047C281.766 329.547 280.094 330.797 278.281 331.797C276.469 332.797 274.25 333.641 271.625 334.328C269.031 335.016 266.25 335.359 263.281 335.359C258.625 335.359 254.219 334.359 250.062 332.359L253.812 326.781C257.156 328.219 260.594 328.938 264.125 328.938C274.656 328.938 281.594 323.016 284.938 311.172L285.922 307.75C281.391 309.875 277.094 310.938 273.031 310.938C271.062 310.938 269.203 310.656 267.453 310.094C265.703 309.562 264.094 308.75 262.625 307.656C261.188 306.531 260.047 305.016 259.203 303.109C258.359 301.172 257.938 298.922 257.938 296.359C257.938 293.828 258.406 290.891 259.344 287.547C260.344 284.047 261.734 280.891 263.516 278.078C265.328 275.266 267.219 273 269.188 271.281C271.188 269.562 273.328 268.141 275.609 267.016C277.891 265.859 279.984 265.062 281.891 264.625C283.797 264.156 285.578 263.922 287.234 263.922ZM285.969 270.156C281.75 270.156 277.906 271.672 274.438 274.703C270.969 277.734 268.516 281.734 267.078 286.703C266.391 289.047 266.047 291.312 266.047 293.5C266.047 296.875 266.953 299.578 268.766 301.609C270.609 303.609 273.359 304.609 277.016 304.609C280.359 304.609 283.875 303.75 287.562 302.031L295.953 272.688C292.266 271 288.938 270.156 285.969 270.156ZM342.594 263.969C350.938 263.969 355.109 267.656 355.109 275.031C355.109 277.875 354.344 282.016 352.812 287.453L351.781 291.016H320.562C320.25 292.172 320.094 293.219 320.094 294.156C320.094 297.125 321.234 299.641 323.516 301.703C325.828 303.766 329.188 304.797 333.594 304.797C336.688 304.797 340.281 304.25 344.375 303.156L344.281 308.359C338.844 310.078 333.734 310.938 328.953 310.938C326.453 310.938 324.234 310.688 322.297 310.188C320.359 309.719 318.766 309.078 317.516 308.266C316.297 307.422 315.281 306.406 314.469 305.219C313.656 304 313.078 302.734 312.734 301.422C312.422 300.109 312.266 298.672 312.266 297.109C312.266 294.516 312.688 291.781 313.531 288.906C314.75 284.688 316.453 280.938 318.641 277.656C320.859 274.375 323.297 271.766 325.953 269.828C328.641 267.891 331.391 266.438 334.203 265.469C337.016 264.469 339.812 263.969 342.594 263.969ZM339.078 270.625C335.141 270.625 331.656 272.078 328.625 274.984C325.594 277.891 323.516 281.297 322.391 285.203H345.969C346.75 282.484 347.141 280.172 347.141 278.266C347.141 273.172 344.453 270.625 339.078 270.625ZM411.453 243.391H419.422L407.047 286.562C406.203 289.5 405.781 291.844 405.781 293.594C405.781 295.531 406.234 297.25 407.141 298.75C409.297 302.281 413.391 304.047 419.422 304.047C423.828 304.047 427.797 303.094 431.328 301.188C434.859 299.25 437.547 296.531 439.391 293.031C440.266 291.406 441.078 289.25 441.828 286.562L454.203 243.391H462.078L449.609 287.266C449.203 288.703 448.812 289.969 448.438 291.062C448.062 292.125 447.438 293.531 446.562 295.281C445.719 297.031 444.797 298.562 443.797 299.875C442.797 301.156 441.453 302.531 439.766 304C438.078 305.469 436.234 306.688 434.234 307.656C432.234 308.594 429.781 309.375 426.875 310C424 310.625 420.859 310.938 417.453 310.938C414.953 310.938 412.672 310.75 410.609 310.375C408.578 310.031 406.875 309.578 405.5 309.016C404.125 308.453 402.906 307.766 401.844 306.953C400.812 306.141 400 305.328 399.406 304.516C398.844 303.703 398.391 302.812 398.047 301.844C397.703 300.844 397.469 299.969 397.344 299.219C397.25 298.469 397.203 297.688 397.203 296.875V295.938C397.266 293.812 397.844 290.891 398.938 287.172L411.453 243.391ZM474.125 264.859H479.516L480.078 268.797C486.859 265.547 492.656 263.922 497.469 263.922C504.656 263.922 508.25 267.094 508.25 273.438C508.25 275.969 507.688 279.172 506.562 283.047L498.828 310H491.141L498.969 282.672C499.562 280.547 499.859 278.828 499.859 277.516C499.859 273.078 497.281 270.859 492.125 270.859C488.562 270.859 484.219 272.016 479.094 274.328L468.875 310H461.188L474.125 264.859ZM544.109 263.969C549.109 263.969 552.703 264.812 554.891 266.5C557.078 268.188 558.172 270.578 558.172 273.672C558.172 275.391 557.844 277.438 557.188 279.812L548.516 310H543.078L542.516 305.781C537.828 309.219 533.062 310.938 528.219 310.938C524.562 310.938 521.625 309.984 519.406 308.078C517.219 306.141 516.125 303.75 516.125 300.906C516.125 299.969 516.266 299 516.547 298C517.172 295.781 518.219 293.859 519.688 292.234C521.188 290.578 522.891 289.25 524.797 288.25C526.734 287.25 529.016 286.453 531.641 285.859C534.266 285.266 536.875 284.859 539.469 284.641C542.062 284.422 544.953 284.312 548.141 284.312L549.172 280.797C549.672 279.109 549.922 277.656 549.922 276.438C549.922 272.375 546.953 270.344 541.016 270.344C538.016 270.344 533.781 271.016 528.312 272.359L528.453 266.828C534.047 264.922 539.266 263.969 544.109 263.969ZM546.5 290.125H543.688C541.938 290.125 540.406 290.156 539.094 290.219C537.812 290.281 536.266 290.453 534.453 290.734C532.672 291.016 531.156 291.406 529.906 291.906C528.688 292.406 527.547 293.156 526.484 294.156C525.422 295.125 524.703 296.281 524.328 297.625C524.203 298.031 524.141 298.5 524.141 299.031C524.141 300.656 524.875 302.047 526.344 303.203C527.844 304.328 529.75 304.891 532.062 304.891C536 304.891 539.828 303.375 543.547 300.344L546.5 290.125ZM612.875 264.859L583.859 310H576.078L573.031 264.859H581.469L582.359 302.547L604.906 264.859H612.875ZM629.844 243.391H638.938L636.406 252.25H627.312L629.844 243.391ZM624.734 263.688H632.422L619.156 310H611.469L624.734 263.688ZM664.203 263.969C669.203 263.969 672.797 264.812 674.984 266.5C677.172 268.188 678.266 270.578 678.266 273.672C678.266 275.391 677.938 277.438 677.281 279.812L668.609 310H663.172L662.609 305.781C657.922 309.219 653.156 310.938 648.312 310.938C644.656 310.938 641.719 309.984 639.5 308.078C637.312 306.141 636.219 303.75 636.219 300.906C636.219 299.969 636.359 299 636.641 298C637.266 295.781 638.312 293.859 639.781 292.234C641.281 290.578 642.984 289.25 644.891 288.25C646.828 287.25 649.109 286.453 651.734 285.859C654.359 285.266 656.969 284.859 659.562 284.641C662.156 284.422 665.047 284.312 668.234 284.312L669.266 280.797C669.766 279.109 670.016 277.656 670.016 276.438C670.016 272.375 667.047 270.344 661.109 270.344C658.109 270.344 653.875 271.016 648.406 272.359L648.547 266.828C654.141 264.922 659.359 263.969 664.203 263.969ZM666.594 290.125H663.781C662.031 290.125 660.5 290.156 659.188 290.219C657.906 290.281 656.359 290.453 654.547 290.734C652.766 291.016 651.25 291.406 650 291.906C648.781 292.406 647.641 293.156 646.578 294.156C645.516 295.125 644.797 296.281 644.422 297.625C644.297 298.031 644.234 298.5 644.234 299.031C644.234 300.656 644.969 302.047 646.438 303.203C647.938 304.328 649.844 304.891 652.156 304.891C656.094 304.891 659.922 303.375 663.641 300.344L666.594 290.125ZM706.859 239.172H714.547L694.25 310H686.562L706.859 239.172ZM740.234 263.969C745.234 263.969 748.828 264.812 751.016 266.5C753.203 268.188 754.297 270.578 754.297 273.672C754.297 275.391 753.969 277.438 753.312 279.812L744.641 310H739.203L738.641 305.781C733.953 309.219 729.188 310.938 724.344 310.938C720.688 310.938 717.75 309.984 715.531 308.078C713.344 306.141 712.25 303.75 712.25 300.906C712.25 299.969 712.391 299 712.672 298C713.297 295.781 714.344 293.859 715.812 292.234C717.312 290.578 719.016 289.25 720.922 288.25C722.859 287.25 725.141 286.453 727.766 285.859C730.391 285.266 733 284.859 735.594 284.641C738.188 284.422 741.078 284.312 744.266 284.312L745.297 280.797C745.797 279.109 746.047 277.656 746.047 276.438C746.047 272.375 743.078 270.344 737.141 270.344C734.141 270.344 729.906 271.016 724.438 272.359L724.578 266.828C730.172 264.922 735.391 263.969 740.234 263.969ZM742.625 290.125H739.812C738.062 290.125 736.531 290.156 735.219 290.219C733.938 290.281 732.391 290.453 730.578 290.734C728.797 291.016 727.281 291.406 726.031 291.906C724.812 292.406 723.672 293.156 722.609 294.156C721.547 295.125 720.828 296.281 720.453 297.625C720.328 298.031 720.266 298.5 720.266 299.031C720.266 300.656 721 302.047 722.469 303.203C723.969 304.328 725.875 304.891 728.188 304.891C732.125 304.891 735.953 303.375 739.672 300.344L742.625 290.125ZM782.234 239.172H789.922L781.906 267.062C786.438 264.969 790.781 263.922 794.938 263.922C796.812 263.922 798.578 264.172 800.234 264.672C801.891 265.141 803.453 265.891 804.922 266.922C806.422 267.953 807.609 269.438 808.484 271.375C809.359 273.281 809.797 275.516 809.797 278.078C809.797 280.734 809.328 283.672 808.391 286.891C806.266 294.328 802.594 300.203 797.375 304.516C792.188 308.797 786.438 310.938 780.125 310.938C775.938 310.938 772.156 309.906 768.781 307.844L767.234 310H761.891L782.234 239.172ZM790.484 270.297C787.172 270.297 783.781 271.094 780.312 272.688L771.641 302.781C774.609 304.188 777.625 304.891 780.688 304.891C782.094 304.891 783.484 304.75 784.859 304.469C786.266 304.156 787.766 303.609 789.359 302.828C790.953 302.016 792.422 301 793.766 299.781C795.141 298.562 796.422 296.969 797.609 295C798.828 293 799.797 290.734 800.516 288.203C801.297 285.547 801.688 283.094 801.688 280.844C801.688 278.812 801.344 277.078 800.656 275.641C799.969 274.172 799.047 273.078 797.891 272.359C796.734 271.609 795.547 271.078 794.328 270.766C793.141 270.453 791.859 270.297 790.484 270.297ZM837.734 239.172H845.422L825.125 310H817.438L837.734 239.172ZM875.562 263.969C883.906 263.969 888.078 267.656 888.078 275.031C888.078 277.875 887.312 282.016 885.781 287.453L884.75 291.016H853.531C853.219 292.172 853.062 293.219 853.062 294.156C853.062 297.125 854.203 299.641 856.484 301.703C858.797 303.766 862.156 304.797 866.562 304.797C869.656 304.797 873.25 304.25 877.344 303.156L877.25 308.359C871.812 310.078 866.703 310.938 861.922 310.938C859.422 310.938 857.203 310.688 855.266 310.188C853.328 309.719 851.734 309.078 850.484 308.266C849.266 307.422 848.25 306.406 847.438 305.219C846.625 304 846.047 302.734 845.703 301.422C845.391 300.109 845.234 298.672 845.234 297.109C845.234 294.516 845.656 291.781 846.5 288.906C847.719 284.688 849.422 280.938 851.609 277.656C853.828 274.375 856.266 271.766 858.922 269.828C861.609 267.891 864.359 266.438 867.172 265.469C869.984 264.469 872.781 263.969 875.562 263.969ZM872.047 270.625C868.109 270.625 864.625 272.078 861.594 274.984C858.562 277.891 856.484 281.297 855.359 285.203H878.938C879.719 282.484 880.109 280.172 880.109 278.266C880.109 273.172 877.422 270.625 872.047 270.625Z" fill="white" fill-opacity="0.7"/>
<path fill-rule="evenodd" clip-rule="evenodd" d="M1001 39.25L967.633 52.3333C934.267 65.4167 867.533 91.5833 800.8 88.3125C734.067 85.0417 667.333 52.3333 600.6 65.4167C533.867 78.5 467.133 137.375 400.4 137.375C333.667 137.375 266.933 78.5 200.2 71.9583C133.467 65.4167 66.7334 111.208 33.3667 134.104L2.47955e-05 157V-1.90735e-06H33.3667C66.7334 -1.90735e-06 133.467 -1.90735e-06 200.2 -1.90735e-06C266.933 -1.90735e-06 333.667 -1.90735e-06 400.4 -1.90735e-06C467.133 -1.90735e-06 533.867 -1.90735e-06 600.6 -1.90735e-06C667.333 -1.90735e-06 734.067 -1.90735e-06 800.8 -1.90735e-06C867.533 -1.90735e-06 934.267 -1.90735e-06 967.633 -1.90735e-06H1001V39.25Z" fill="#8D8D8D"/>
</svg>
