<svg width="1002" height="548" viewBox="0 0 1002 548" fill="none" xmlns="http://www.w3.org/2000/svg">
<g clip-path="url(#clip0_1893_91)">
<rect width="1002" height="548" fill="white"/>
<path d="M1002 0H0V548H1002V0Z" fill="#3A3A3A"/>
<path fill-rule="evenodd" clip-rule="evenodd" d="M1000 39.9796L966.668 53.306C933.336 66.6326 866.668 93.2856 800.002 89.954C733.335 86.6224 666.668 53.306 600.001 66.6326C533.335 79.9591 466.667 139.928 400.001 139.928C333.334 139.928 266.667 79.9591 200 73.2958C133.334 66.6326 66.6668 113.275 33.3334 136.597L0 159.918V0H33.3334C66.6668 0 133.334 0 200 0C266.667 0 333.334 0 400.001 0C466.667 0 533.335 0 600.001 0C666.668 0 733.335 0 800.002 0C866.668 0 933.336 0 966.668 0H1000V39.9796Z" fill="#8D8D8D"/>
<path d="M69.993 328L70.893 323.35H90.543L89.643 328H69.993ZM138.338 346L148.838 293.5H154.313L143.813 346H138.338ZM215.945 306.25C219.495 306.25 222.37 306.95 224.57 308.35C226.82 309.7 228.37 311.675 229.22 314.275C230.07 316.875 230.12 319.975 229.37 323.575L224.87 346H219.545L224.045 323.5C224.845 319.6 224.47 316.55 222.92 314.35C221.42 312.15 218.67 311.05 214.67 311.05C210.72 311.05 207.395 312.15 204.695 314.35C202.045 316.55 200.27 319.85 199.37 324.25L195.02 346H189.695L194.195 323.5C194.995 319.6 194.62 316.55 193.07 314.35C191.52 312.15 188.77 311.05 184.82 311.05C180.77 311.05 177.42 312.2 174.77 314.5C172.12 316.8 170.32 320.25 169.37 324.85L165.17 346H159.845L167.645 306.625H172.745L170.495 317.95L169.37 316C171.27 312.6 173.67 310.125 176.57 308.575C179.47 307.025 182.745 306.25 186.395 306.25C189.145 306.25 191.495 306.725 193.445 307.675C195.445 308.575 196.995 309.925 198.095 311.725C199.245 313.475 199.87 315.575 199.97 318.025L197.195 317.425C199.145 313.675 201.72 310.875 204.92 309.025C208.17 307.175 211.845 306.25 215.945 306.25ZM256.186 346.375C252.836 346.375 249.861 345.7 247.261 344.35C244.661 343 242.636 341.075 241.186 338.575C239.736 336.075 239.011 333.1 239.011 329.65C239.011 326.3 239.561 323.2 240.661 320.35C241.761 317.5 243.311 315.025 245.311 312.925C247.311 310.775 249.661 309.125 252.361 307.975C255.111 306.825 258.086 306.25 261.286 306.25C264.736 306.25 267.661 306.875 270.061 308.125C272.461 309.325 274.311 311.1 275.611 313.45C276.911 315.75 277.561 318.55 277.561 321.85C277.561 326.6 276.686 330.825 274.936 334.525C273.186 338.225 270.711 341.125 267.511 343.225C264.311 345.325 260.536 346.375 256.186 346.375ZM257.311 341.65C260.611 341.65 263.536 340.875 266.086 339.325C268.686 337.725 270.711 335.525 272.161 332.725C273.661 329.925 274.411 326.75 274.411 323.2C274.411 319.3 273.261 316.275 270.961 314.125C268.711 311.975 265.536 310.9 261.436 310.9C258.186 310.9 255.261 311.7 252.661 313.3C250.061 314.9 248.011 317.1 246.511 319.9C245.061 322.65 244.336 325.825 244.336 329.425C244.336 333.275 245.461 336.275 247.711 338.425C250.011 340.575 253.211 341.65 257.311 341.65ZM270.286 346L272.536 334.675L274.786 326.725L275.536 318.475L277.936 306.625H283.261L275.386 346H270.286ZM304.766 360.925C301.116 360.925 297.791 360.4 294.791 359.35C291.791 358.35 289.266 356.9 287.216 355L290.366 350.95C291.966 352.55 294.041 353.825 296.591 354.775C299.191 355.725 302.041 356.2 305.141 356.2C310.141 356.2 314.016 355.05 316.766 352.75C319.516 350.45 321.341 346.9 322.241 342.1L324.341 331.75L326.366 325.3L327.191 318.55L329.516 306.625H334.616L327.716 341.2C326.366 348.15 323.816 353.175 320.066 356.275C316.316 359.375 311.216 360.925 304.766 360.925ZM307.391 344.5C303.941 344.5 300.891 343.85 298.241 342.55C295.641 341.25 293.616 339.425 292.166 337.075C290.716 334.675 289.991 331.85 289.991 328.6C289.991 325.4 290.541 322.45 291.641 319.75C292.741 317.05 294.291 314.7 296.291 312.7C298.291 310.65 300.666 309.075 303.416 307.975C306.166 306.825 309.191 306.25 312.491 306.25C315.641 306.25 318.441 306.8 320.891 307.9C323.341 309 325.266 310.65 326.666 312.85C328.116 315.05 328.841 317.85 328.841 321.25C328.891 325.55 328.041 329.475 326.291 333.025C324.541 336.525 322.066 339.325 318.866 341.425C315.666 343.475 311.841 344.5 307.391 344.5ZM308.441 339.775C311.741 339.775 314.666 339.025 317.216 337.525C319.816 336.025 321.866 333.975 323.366 331.375C324.866 328.725 325.616 325.725 325.616 322.375C325.616 318.775 324.466 315.975 322.166 313.975C319.866 311.925 316.666 310.9 312.566 310.9C309.266 310.9 306.316 311.65 303.716 313.15C301.116 314.65 299.066 316.725 297.566 319.375C296.116 321.975 295.391 324.95 295.391 328.3C295.391 331.9 296.541 334.725 298.841 336.775C301.141 338.775 304.341 339.775 308.441 339.775ZM359.559 346.375C355.809 346.375 352.534 345.7 349.734 344.35C346.984 342.95 344.859 341 343.359 338.5C341.909 336 341.184 333.025 341.184 329.575C341.184 325.075 342.134 321.075 344.034 317.575C345.934 314.075 348.534 311.325 351.834 309.325C355.134 307.275 358.859 306.25 363.009 306.25C366.509 306.25 369.534 306.925 372.084 308.275C374.634 309.575 376.609 311.475 378.009 313.975C379.459 316.475 380.184 319.475 380.184 322.975C380.184 323.775 380.134 324.6 380.034 325.45C379.934 326.25 379.809 327.025 379.659 327.775H345.084L345.759 323.8H377.184L375.009 325.3C375.509 322.15 375.284 319.5 374.334 317.35C373.384 315.2 371.909 313.575 369.909 312.475C367.959 311.325 365.609 310.75 362.859 310.75C359.659 310.75 356.809 311.55 354.309 313.15C351.809 314.7 349.859 316.875 348.459 319.675C347.059 322.425 346.359 325.65 346.359 329.35C346.359 333.3 347.484 336.35 349.734 338.5C352.034 340.6 355.459 341.65 360.009 341.65C362.659 341.65 365.109 341.225 367.359 340.375C369.609 339.475 371.459 338.25 372.909 336.7L375.309 340.525C373.459 342.375 371.134 343.825 368.334 344.875C365.584 345.875 362.659 346.375 359.559 346.375ZM429.852 346.45C425.052 346.45 421.127 345.475 418.077 343.525C415.077 341.575 413.027 338.875 411.927 335.425C410.827 331.975 410.727 328.05 411.627 323.65L417.627 293.5H423.102L417.102 323.65C416.552 326.25 416.402 328.65 416.652 330.85C416.902 333.05 417.552 334.95 418.602 336.55C419.702 338.15 421.227 339.375 423.177 340.225C425.127 341.075 427.527 341.5 430.377 341.5C433.977 341.5 437.027 340.85 439.527 339.55C442.027 338.2 444.052 336.225 445.602 333.625C447.202 331.025 448.402 327.825 449.202 324.025L455.277 293.5H460.677L454.527 324.4C453.127 331.6 450.352 337.075 446.202 340.825C442.102 344.575 436.652 346.45 429.852 346.45ZM492.926 306.25C496.476 306.25 499.376 306.95 501.626 308.35C503.926 309.7 505.501 311.675 506.351 314.275C507.251 316.875 507.326 319.975 506.576 323.575L502.076 346H496.751L501.251 323.5C502.051 319.6 501.626 316.55 499.976 314.35C498.376 312.15 495.526 311.05 491.426 311.05C487.226 311.05 483.726 312.2 480.926 314.5C478.176 316.8 476.326 320.25 475.376 324.85L471.176 346H465.851L473.651 306.625H478.751L476.501 317.95L475.376 316C477.276 312.6 479.726 310.125 482.726 308.575C485.776 307.025 489.176 306.25 492.926 306.25ZM533.335 346.375C529.985 346.375 527.01 345.7 524.41 344.35C521.81 343 519.785 341.075 518.335 338.575C516.885 336.075 516.16 333.1 516.16 329.65C516.16 326.3 516.71 323.2 517.81 320.35C518.91 317.5 520.46 315.025 522.46 312.925C524.46 310.775 526.81 309.125 529.51 307.975C532.26 306.825 535.235 306.25 538.435 306.25C541.885 306.25 544.81 306.875 547.21 308.125C549.61 309.325 551.46 311.1 552.76 313.45C554.06 315.75 554.71 318.55 554.71 321.85C554.71 326.6 553.835 330.825 552.085 334.525C550.335 338.225 547.86 341.125 544.66 343.225C541.46 345.325 537.685 346.375 533.335 346.375ZM534.46 341.65C537.76 341.65 540.685 340.875 543.235 339.325C545.835 337.725 547.86 335.525 549.31 332.725C550.81 329.925 551.56 326.75 551.56 323.2C551.56 319.3 550.41 316.275 548.11 314.125C545.86 311.975 542.685 310.9 538.585 310.9C535.335 310.9 532.41 311.7 529.81 313.3C527.21 314.9 525.16 317.1 523.66 319.9C522.21 322.65 521.485 325.825 521.485 329.425C521.485 333.275 522.61 336.275 524.86 338.425C527.16 340.575 530.36 341.65 534.46 341.65ZM547.435 346L549.685 334.675L551.935 326.725L552.685 318.475L555.085 306.625H560.41L552.535 346H547.435ZM577.565 346L567.815 306.625H573.14L581.99 343.15H579.44L602.84 306.625H608.39L582.965 346H577.565ZM623.716 346.375C620.366 346.375 617.391 345.7 614.791 344.35C612.191 343 610.166 341.075 608.716 338.575C607.266 336.075 606.541 333.1 606.541 329.65C606.541 326.3 607.091 323.2 608.191 320.35C609.291 317.5 610.841 315.025 612.841 312.925C614.841 310.775 617.191 309.125 619.891 307.975C622.641 306.825 625.616 306.25 628.816 306.25C632.266 306.25 635.191 306.875 637.591 308.125C639.991 309.325 641.841 311.1 643.141 313.45C644.441 315.75 645.091 318.55 645.091 321.85C645.091 326.6 644.216 330.825 642.466 334.525C640.716 338.225 638.241 341.125 635.041 343.225C631.841 345.325 628.066 346.375 623.716 346.375ZM624.841 341.65C628.141 341.65 631.066 340.875 633.616 339.325C636.216 337.725 638.241 335.525 639.691 332.725C641.191 329.925 641.941 326.75 641.941 323.2C641.941 319.3 640.791 316.275 638.491 314.125C636.241 311.975 633.066 310.9 628.966 310.9C625.716 310.9 622.791 311.7 620.191 313.3C617.591 314.9 615.541 317.1 614.041 319.9C612.591 322.65 611.866 325.825 611.866 329.425C611.866 333.275 612.991 336.275 615.241 338.425C617.541 340.575 620.741 341.65 624.841 341.65ZM637.816 346L640.066 334.675L642.316 326.725L643.066 318.475L645.466 306.625H650.791L642.916 346H637.816ZM657.746 346L665.546 306.625H670.871L663.071 346H657.746ZM670.496 297.925C669.446 297.925 668.571 297.575 667.871 296.875C667.221 296.175 666.896 295.35 666.896 294.4C666.896 293.3 667.271 292.35 668.021 291.55C668.821 290.75 669.821 290.35 671.021 290.35C672.071 290.35 672.946 290.675 673.646 291.325C674.346 291.975 674.696 292.8 674.696 293.8C674.696 295 674.296 296 673.496 296.8C672.696 297.55 671.696 297.925 670.496 297.925ZM677.887 346L688.987 290.35H694.312L683.212 346H677.887ZM714.829 346.375C711.479 346.375 708.504 345.7 705.904 344.35C703.304 343 701.279 341.075 699.829 338.575C698.379 336.075 697.654 333.1 697.654 329.65C697.654 326.3 698.204 323.2 699.304 320.35C700.404 317.5 701.954 315.025 703.954 312.925C705.954 310.775 708.304 309.125 711.004 307.975C713.754 306.825 716.729 306.25 719.929 306.25C723.379 306.25 726.304 306.875 728.704 308.125C731.104 309.325 732.954 311.1 734.254 313.45C735.554 315.75 736.204 318.55 736.204 321.85C736.204 326.6 735.329 330.825 733.579 334.525C731.829 338.225 729.354 341.125 726.154 343.225C722.954 345.325 719.179 346.375 714.829 346.375ZM715.954 341.65C719.254 341.65 722.179 340.875 724.729 339.325C727.329 337.725 729.354 335.525 730.804 332.725C732.304 329.925 733.054 326.75 733.054 323.2C733.054 319.3 731.904 316.275 729.604 314.125C727.354 311.975 724.179 310.9 720.079 310.9C716.829 310.9 713.904 311.7 711.304 313.3C708.704 314.9 706.654 317.1 705.154 319.9C703.704 322.65 702.979 325.825 702.979 329.425C702.979 333.275 704.104 336.275 706.354 338.425C708.654 340.575 711.854 341.65 715.954 341.65ZM728.929 346L731.179 334.675L733.429 326.725L734.179 318.475L736.579 306.625H741.904L734.029 346H728.929ZM748.859 346L759.959 290.35H765.284L759.734 318.025L757.334 325.825L756.434 333.475L753.959 346H748.859ZM770.759 346.375C767.359 346.375 764.434 345.775 761.984 344.575C759.584 343.325 757.734 341.55 756.434 339.25C755.184 336.9 754.534 334.075 754.484 330.775C754.484 327.175 754.984 323.875 755.984 320.875C756.984 317.875 758.409 315.3 760.259 313.15C762.159 310.95 764.409 309.25 767.009 308.05C769.659 306.85 772.609 306.25 775.859 306.25C779.259 306.25 782.234 306.925 784.784 308.275C787.384 309.575 789.409 311.475 790.859 313.975C792.359 316.475 793.109 319.45 793.109 322.9C793.109 326.3 792.559 329.425 791.459 332.275C790.359 335.125 788.784 337.6 786.734 339.7C784.734 341.8 782.384 343.45 779.684 344.65C776.984 345.8 774.009 346.375 770.759 346.375ZM770.684 341.65C773.984 341.65 776.909 340.875 779.459 339.325C782.009 337.725 784.009 335.525 785.459 332.725C786.959 329.925 787.709 326.75 787.709 323.2C787.709 319.3 786.584 316.275 784.334 314.125C782.084 311.975 778.884 310.9 774.734 310.9C771.484 310.9 768.559 311.7 765.959 313.3C763.409 314.9 761.384 317.1 759.884 319.9C758.434 322.65 757.709 325.825 757.709 329.425C757.709 333.275 758.834 336.275 761.084 338.425C763.334 340.575 766.534 341.65 770.684 341.65ZM799.689 346L810.789 290.35H816.114L805.014 346H799.689ZM837.831 346.375C834.081 346.375 830.806 345.7 828.006 344.35C825.256 342.95 823.131 341 821.631 338.5C820.181 336 819.456 333.025 819.456 329.575C819.456 325.075 820.406 321.075 822.306 317.575C824.206 314.075 826.806 311.325 830.106 309.325C833.406 307.275 837.131 306.25 841.281 306.25C844.781 306.25 847.806 306.925 850.356 308.275C852.906 309.575 854.881 311.475 856.281 313.975C857.731 316.475 858.456 319.475 858.456 322.975C858.456 323.775 858.406 324.6 858.306 325.45C858.206 326.25 858.081 327.025 857.931 327.775H823.356L824.031 323.8H855.456L853.281 325.3C853.781 322.15 853.556 319.5 852.606 317.35C851.656 315.2 850.181 313.575 848.181 312.475C846.231 311.325 843.881 310.75 841.131 310.75C837.931 310.75 835.081 311.55 832.581 313.15C830.081 314.7 828.131 316.875 826.731 319.675C825.331 322.425 824.631 325.65 824.631 329.35C824.631 333.3 825.756 336.35 828.006 338.5C830.306 340.6 833.731 341.65 838.281 341.65C840.931 341.65 843.381 341.225 845.631 340.375C847.881 339.475 849.731 338.25 851.181 336.7L853.581 340.525C851.731 342.375 849.406 343.825 846.606 344.875C843.856 345.875 840.931 346.375 837.831 346.375ZM905.027 328L905.927 323.35H925.577L924.677 328H905.027Z" fill="#8D8D8D"/>
</g>
<defs>
<clipPath id="clip0_1893_91">
<rect width="1002" height="548" fill="white"/>
</clipPath>
</defs>
</svg>
