<svg width="379" height="379" viewBox="0 0 379 379" fill="none" xmlns="http://www.w3.org/2000/svg">
<circle cx="189.5" cy="189.5" r="189.5" fill="#A2A2A2" fill-opacity="0.2"/>
<path d="M67.0938 189.695H71.0781L64.8906 211.281C64.4688 212.75 64.2578 213.922 64.2578 214.797C64.2578 215.766 64.4844 216.625 64.9375 217.375C66.0156 219.141 68.0625 220.023 71.0781 220.023C73.2812 220.023 75.2656 219.547 77.0312 218.594C78.7969 217.625 80.1406 216.266 81.0625 214.516C81.5 213.703 81.9062 212.625 82.2812 211.281L88.4688 189.695H92.4062L86.1719 211.633C85.9688 212.352 85.7734 212.984 85.5859 213.531C85.3984 214.062 85.0859 214.766 84.6484 215.641C84.2266 216.516 83.7656 217.281 83.2656 217.938C82.7656 218.578 82.0938 219.266 81.25 220C80.4062 220.734 79.4844 221.344 78.4844 221.828C77.4844 222.297 76.2578 222.688 74.8047 223C73.3672 223.312 71.7969 223.469 70.0938 223.469C68.8438 223.469 67.7031 223.375 66.6719 223.188C65.6562 223.016 64.8047 222.789 64.1172 222.508C63.4297 222.227 62.8203 221.883 62.2891 221.477C61.7734 221.07 61.3672 220.664 61.0703 220.258C60.7891 219.852 60.5625 219.406 60.3906 218.922C60.2188 218.422 60.1016 217.984 60.0391 217.609C59.9922 217.234 59.9688 216.844 59.9688 216.438V215.969C60 214.906 60.2891 213.445 60.8359 211.586L67.0938 189.695ZM108.555 199.984C109.305 199.984 110.016 200.062 110.688 200.219C111.375 200.359 112.039 200.602 112.68 200.945C113.336 201.289 113.906 201.727 114.391 202.258C114.875 202.789 115.258 203.469 115.539 204.297C115.836 205.125 115.984 206.055 115.984 207.086C115.984 208.32 115.75 209.781 115.281 211.469C114.562 213.938 113.477 216.086 112.023 217.914C110.586 219.742 108.93 221.125 107.055 222.062C105.18 223 103.211 223.469 101.148 223.469C99.3203 223.469 97.6094 223.055 96.0156 222.227L92.2188 235.445H88.375L98.4297 200.43H101.102L101.312 201.906C103.828 200.625 106.242 199.984 108.555 199.984ZM106.328 203.172C104.641 203.172 102.906 203.586 101.125 204.414L96.8359 219.367C98.2734 220.086 99.8047 220.445 101.43 220.445C102.133 220.445 102.828 220.375 103.516 220.234C104.219 220.078 104.969 219.805 105.766 219.414C106.562 219.008 107.297 218.5 107.969 217.891C108.656 217.281 109.297 216.484 109.891 215.5C110.5 214.5 110.984 213.367 111.344 212.102C111.734 210.773 111.93 209.555 111.93 208.445C111.93 207.43 111.758 206.562 111.414 205.844C111.07 205.109 110.609 204.562 110.031 204.203C109.453 203.828 108.859 203.562 108.25 203.406C107.656 203.25 107.016 203.172 106.328 203.172ZM129.953 187.586H133.797L123.648 223H119.805L129.953 187.586ZM148.984 199.984C151.484 199.984 153.477 200.633 154.961 201.93C156.445 203.211 157.188 205.039 157.188 207.414C157.188 208.602 156.992 209.883 156.602 211.258C155.523 214.992 153.625 217.961 150.906 220.164C148.188 222.367 145.18 223.469 141.883 223.469C139.398 223.469 137.438 222.812 136 221.5C134.578 220.172 133.867 218.328 133.867 215.969C133.867 214.703 134.07 213.367 134.477 211.961C135.523 208.305 137.375 205.398 140.031 203.242C142.688 201.07 145.672 199.984 148.984 199.984ZM147.742 203.266C146.555 203.266 145.352 203.562 144.133 204.156C142.93 204.734 141.797 205.656 140.734 206.922C139.672 208.172 138.898 209.641 138.414 211.328C138.102 212.438 137.945 213.469 137.945 214.422C137.945 216.141 138.406 217.531 139.328 218.594C140.266 219.656 141.57 220.188 143.242 220.188C145.242 220.188 147.133 219.43 148.914 217.914C150.695 216.398 151.93 214.43 152.617 212.008C152.93 210.93 153.086 209.906 153.086 208.938C153.086 207.141 152.57 205.75 151.539 204.766C150.523 203.766 149.258 203.266 147.742 203.266ZM174.672 199.984C177.172 199.984 178.969 200.406 180.062 201.25C181.156 202.094 181.703 203.289 181.703 204.836C181.703 205.695 181.539 206.719 181.211 207.906L176.875 223H174.156L173.875 220.891C171.531 222.609 169.148 223.469 166.727 223.469C164.898 223.469 163.43 222.992 162.32 222.039C161.227 221.07 160.68 219.875 160.68 218.453C160.68 217.984 160.75 217.5 160.891 217C161.203 215.891 161.727 214.93 162.461 214.117C163.211 213.289 164.062 212.625 165.016 212.125C165.984 211.625 167.125 211.227 168.438 210.93C169.75 210.633 171.055 210.43 172.352 210.32C173.648 210.211 175.094 210.156 176.688 210.156L177.203 208.398C177.453 207.555 177.578 206.828 177.578 206.219C177.578 204.188 176.094 203.172 173.125 203.172C171.625 203.172 169.508 203.508 166.773 204.18L166.844 201.414C169.641 200.461 172.25 199.984 174.672 199.984ZM175.867 213.062H174.461C173.586 213.062 172.82 213.078 172.164 213.109C171.523 213.141 170.75 213.227 169.844 213.367C168.953 213.508 168.195 213.703 167.57 213.953C166.961 214.203 166.391 214.578 165.859 215.078C165.328 215.562 164.969 216.141 164.781 216.812C164.719 217.016 164.688 217.25 164.688 217.516C164.688 218.328 165.055 219.023 165.789 219.602C166.539 220.164 167.492 220.445 168.648 220.445C170.617 220.445 172.531 219.688 174.391 218.172L175.867 213.062ZM187.258 212.102C188.008 209.523 189.125 207.305 190.609 205.445C192.109 203.57 193.781 202.188 195.625 201.297C197.469 200.406 199.406 199.961 201.438 199.961C203.266 199.961 204.977 200.375 206.57 201.203L210.461 187.586H214.305L204.156 223H201.484L201.273 221.547C198.773 222.828 196.367 223.469 194.055 223.469C193.086 223.469 192.172 223.336 191.312 223.07C190.469 222.82 189.68 222.43 188.945 221.898C188.227 221.367 187.648 220.633 187.211 219.695C186.789 218.742 186.578 217.633 186.578 216.367C186.578 215.086 186.805 213.664 187.258 212.102ZM196.211 220.305C197.898 220.305 199.648 219.883 201.461 219.039L205.75 204.062C204.312 203.344 202.773 202.984 201.133 202.984C200.43 202.984 199.727 203.062 199.023 203.219C198.336 203.359 197.594 203.633 196.797 204.039C196 204.43 195.266 204.938 194.594 205.562C193.922 206.172 193.273 206.992 192.648 208.023C192.039 209.039 191.547 210.203 191.172 211.516C190.797 212.859 190.609 214.016 190.609 214.984C190.609 216 190.781 216.875 191.125 217.609C191.469 218.328 191.93 218.875 192.508 219.25C193.086 219.625 193.68 219.898 194.289 220.07C194.898 220.227 195.539 220.305 196.211 220.305ZM229.422 200.43H233.641L235.422 219.742L247.68 200.43H251.664L228.508 235.445H224.406L232.211 224.336L229.422 200.43ZM267.062 199.984C269.562 199.984 271.555 200.633 273.039 201.93C274.523 203.211 275.266 205.039 275.266 207.414C275.266 208.602 275.07 209.883 274.68 211.258C273.602 214.992 271.703 217.961 268.984 220.164C266.266 222.367 263.258 223.469 259.961 223.469C257.477 223.469 255.516 222.812 254.078 221.5C252.656 220.172 251.945 218.328 251.945 215.969C251.945 214.703 252.148 213.367 252.555 211.961C253.602 208.305 255.453 205.398 258.109 203.242C260.766 201.07 263.75 199.984 267.062 199.984ZM265.82 203.266C264.633 203.266 263.43 203.562 262.211 204.156C261.008 204.734 259.875 205.656 258.812 206.922C257.75 208.172 256.977 209.641 256.492 211.328C256.18 212.438 256.023 213.469 256.023 214.422C256.023 216.141 256.484 217.531 257.406 218.594C258.344 219.656 259.648 220.188 261.32 220.188C263.32 220.188 265.211 219.43 266.992 217.914C268.773 216.398 270.008 214.43 270.695 212.008C271.008 210.93 271.164 209.906 271.164 208.938C271.164 207.141 270.648 205.75 269.617 204.766C268.602 203.766 267.336 203.266 265.82 203.266ZM300.039 200.43H303.883L297.414 223H294.719L294.461 221.055C291.102 222.664 288.195 223.469 285.742 223.469C282.133 223.469 280.328 221.875 280.328 218.688C280.328 217.438 280.609 215.844 281.172 213.906L285.039 200.43H288.883L284.945 214.117C284.664 215.039 284.523 215.875 284.523 216.625C284.523 218.891 285.812 220.023 288.391 220.023C290.156 220.023 292.336 219.438 294.93 218.266L300.039 200.43ZM315.25 202.164C317.562 200.711 319.875 199.984 322.188 199.984C323.766 199.984 325.117 200.289 326.242 200.898L324.227 203.945C323.148 203.492 321.977 203.266 320.711 203.266C318.805 203.266 316.867 203.789 314.898 204.836L309.695 223H305.852L312.32 200.43H315.016L315.25 202.164ZM78.8125 257.695H83.3594L82.0938 262.125H77.5469L78.8125 257.695ZM76.2578 267.844H80.1016L73.4688 291H69.625L76.2578 267.844ZM96.5078 271.523C95.2109 271.523 93.2891 272.102 90.7422 273.258L85.6562 291H81.8125L88.2812 268.43H90.9766L91.2344 270.352C94.4375 268.773 97.0391 267.984 99.0391 267.984C101.367 267.984 102.938 268.844 103.75 270.562C107.234 268.859 110.172 268.008 112.562 268.008C116.234 268.008 118.07 269.617 118.07 272.836C118.07 274.07 117.805 275.609 117.273 277.453L113.406 291H109.562L113.5 277.242C113.766 276.273 113.898 275.453 113.898 274.781C113.898 272.609 112.703 271.523 110.312 271.523C108.875 271.523 106.852 272.109 104.242 273.281C104.211 274.156 103.906 275.617 103.328 277.664L99.5078 291H95.6641L99.625 277.172C99.875 276.297 100 275.508 100 274.805C100 272.617 98.8359 271.523 96.5078 271.523ZM136.117 267.984C138.617 267.984 140.414 268.406 141.508 269.25C142.602 270.094 143.148 271.289 143.148 272.836C143.148 273.695 142.984 274.719 142.656 275.906L138.32 291H135.602L135.32 288.891C132.977 290.609 130.594 291.469 128.172 291.469C126.344 291.469 124.875 290.992 123.766 290.039C122.672 289.07 122.125 287.875 122.125 286.453C122.125 285.984 122.195 285.5 122.336 285C122.648 283.891 123.172 282.93 123.906 282.117C124.656 281.289 125.508 280.625 126.461 280.125C127.43 279.625 128.57 279.227 129.883 278.93C131.195 278.633 132.5 278.43 133.797 278.32C135.094 278.211 136.539 278.156 138.133 278.156L138.648 276.398C138.898 275.555 139.023 274.828 139.023 274.219C139.023 272.188 137.539 271.172 134.57 271.172C133.07 271.172 130.953 271.508 128.219 272.18L128.289 269.414C131.086 268.461 133.695 267.984 136.117 267.984ZM137.312 281.062H135.906C135.031 281.062 134.266 281.078 133.609 281.109C132.969 281.141 132.195 281.227 131.289 281.367C130.398 281.508 129.641 281.703 129.016 281.953C128.406 282.203 127.836 282.578 127.305 283.078C126.773 283.562 126.414 284.141 126.227 284.812C126.164 285.016 126.133 285.25 126.133 285.516C126.133 286.328 126.5 287.023 127.234 287.602C127.984 288.164 128.938 288.445 130.094 288.445C132.062 288.445 133.977 287.688 135.836 286.172L137.312 281.062ZM162.695 267.961C164.523 267.961 166.445 268.578 168.461 269.812L169.328 268.43H172.023L165.086 292.641C164.945 293.109 164.797 293.555 164.641 293.977C164.5 294.398 164.234 295 163.844 295.781C163.469 296.578 163.047 297.297 162.578 297.938C162.125 298.578 161.508 299.273 160.727 300.023C159.961 300.773 159.125 301.398 158.219 301.898C157.312 302.398 156.203 302.82 154.891 303.164C153.594 303.508 152.203 303.68 150.719 303.68C148.391 303.68 146.188 303.18 144.109 302.18L145.984 299.391C147.656 300.109 149.375 300.469 151.141 300.469C156.406 300.469 159.875 297.508 161.547 291.586L162.039 289.875C159.773 290.938 157.625 291.469 155.594 291.469C154.609 291.469 153.68 291.328 152.805 291.047C151.93 290.781 151.125 290.375 150.391 289.828C149.672 289.266 149.102 288.508 148.68 287.555C148.258 286.586 148.047 285.461 148.047 284.18C148.047 282.914 148.281 281.445 148.75 279.773C149.25 278.023 149.945 276.445 150.836 275.039C151.742 273.633 152.688 272.5 153.672 271.641C154.672 270.781 155.742 270.07 156.883 269.508C158.023 268.93 159.07 268.531 160.023 268.312C160.977 268.078 161.867 267.961 162.695 267.961ZM162.062 271.078C159.953 271.078 158.031 271.836 156.297 273.352C154.562 274.867 153.336 276.867 152.617 279.352C152.273 280.523 152.102 281.656 152.102 282.75C152.102 284.438 152.555 285.789 153.461 286.805C154.383 287.805 155.758 288.305 157.586 288.305C159.258 288.305 161.016 287.875 162.859 287.016L167.055 272.344C165.211 271.5 163.547 271.078 162.062 271.078ZM190.375 267.984C194.547 267.984 196.633 269.828 196.633 273.516C196.633 274.938 196.25 277.008 195.484 279.727L194.969 281.508H179.359C179.203 282.086 179.125 282.609 179.125 283.078C179.125 284.562 179.695 285.82 180.836 286.852C181.992 287.883 183.672 288.398 185.875 288.398C187.422 288.398 189.219 288.125 191.266 287.578L191.219 290.18C188.5 291.039 185.945 291.469 183.555 291.469C182.305 291.469 181.195 291.344 180.227 291.094C179.258 290.859 178.461 290.539 177.836 290.133C177.227 289.711 176.719 289.203 176.312 288.609C175.906 288 175.617 287.367 175.445 286.711C175.289 286.055 175.211 285.336 175.211 284.555C175.211 283.258 175.422 281.891 175.844 280.453C176.453 278.344 177.305 276.469 178.398 274.828C179.508 273.188 180.727 271.883 182.055 270.914C183.398 269.945 184.773 269.219 186.18 268.734C187.586 268.234 188.984 267.984 190.375 267.984ZM188.617 271.312C186.648 271.312 184.906 272.039 183.391 273.492C181.875 274.945 180.836 276.648 180.273 278.602H192.062C192.453 277.242 192.648 276.086 192.648 275.133C192.648 272.586 191.305 271.312 188.617 271.312ZM228.297 271.43C226.5 271.43 224.32 272.008 221.758 273.164L216.648 291H212.805L222.977 255.586H226.82L222.625 270.188C225.734 268.734 228.461 268.008 230.805 268.008C234.539 268.008 236.406 269.688 236.406 273.047C236.406 274.266 236.102 275.93 235.492 278.039L231.766 291H227.828L231.719 277.406C232 276.375 232.141 275.523 232.141 274.852C232.141 272.57 230.859 271.43 228.297 271.43ZM256.609 267.984C260.781 267.984 262.867 269.828 262.867 273.516C262.867 274.938 262.484 277.008 261.719 279.727L261.203 281.508H245.594C245.438 282.086 245.359 282.609 245.359 283.078C245.359 284.562 245.93 285.82 247.07 286.852C248.227 287.883 249.906 288.398 252.109 288.398C253.656 288.398 255.453 288.125 257.5 287.578L257.453 290.18C254.734 291.039 252.18 291.469 249.789 291.469C248.539 291.469 247.43 291.344 246.461 291.094C245.492 290.859 244.695 290.539 244.07 290.133C243.461 289.711 242.953 289.203 242.547 288.609C242.141 288 241.852 287.367 241.68 286.711C241.523 286.055 241.445 285.336 241.445 284.555C241.445 283.258 241.656 281.891 242.078 280.453C242.688 278.344 243.539 276.469 244.633 274.828C245.742 273.188 246.961 271.883 248.289 270.914C249.633 269.945 251.008 269.219 252.414 268.734C253.82 268.234 255.219 267.984 256.609 267.984ZM254.852 271.312C252.883 271.312 251.141 272.039 249.625 273.492C248.109 274.945 247.07 276.648 246.508 278.602H258.297C258.688 277.242 258.883 276.086 258.883 275.133C258.883 272.586 257.539 271.312 254.852 271.312ZM275.102 270.164C277.414 268.711 279.727 267.984 282.039 267.984C283.617 267.984 284.969 268.289 286.094 268.898L284.078 271.945C283 271.492 281.828 271.266 280.562 271.266C278.656 271.266 276.719 271.789 274.75 272.836L269.547 291H265.703L272.172 268.43H274.867L275.102 270.164ZM300.625 267.984C304.797 267.984 306.883 269.828 306.883 273.516C306.883 274.938 306.5 277.008 305.734 279.727L305.219 281.508H289.609C289.453 282.086 289.375 282.609 289.375 283.078C289.375 284.562 289.945 285.82 291.086 286.852C292.242 287.883 293.922 288.398 296.125 288.398C297.672 288.398 299.469 288.125 301.516 287.578L301.469 290.18C298.75 291.039 296.195 291.469 293.805 291.469C292.555 291.469 291.445 291.344 290.477 291.094C289.508 290.859 288.711 290.539 288.086 290.133C287.477 289.711 286.969 289.203 286.562 288.609C286.156 288 285.867 287.367 285.695 286.711C285.539 286.055 285.461 285.336 285.461 284.555C285.461 283.258 285.672 281.891 286.094 280.453C286.703 278.344 287.555 276.469 288.648 274.828C289.758 273.188 290.977 271.883 292.305 270.914C293.648 269.945 295.023 269.219 296.43 268.734C297.836 268.234 299.234 267.984 300.625 267.984ZM298.867 271.312C296.898 271.312 295.156 272.039 293.641 273.492C292.125 274.945 291.086 276.648 290.523 278.602H302.312C302.703 277.242 302.898 276.086 302.898 275.133C302.898 272.586 301.555 271.312 298.867 271.312Z" fill="white"/>
<path d="M189.501 0C264.02 0 328.491 43.0142 359.444 105.567L352.452 103.075C337.893 96.1887 308.746 85.7991 280.49 94.0244C251.19 102.241 221.737 129.065 192.381 144.048C164.083 157.348 134.853 157.107 105.72 145.025C76.573 134.636 48.5815 110.722 34.0498 100.452L25.9297 93.7627C58.8334 37.6664 119.768 0 189.501 0Z" fill="#939393"/>
</svg>
