<svg version="1.1" viewBox="0.0 0.0 960.0 720.0" fill="none" stroke="none" stroke-linecap="square" stroke-miterlimit="10" xmlns:xlink="http://www.w3.org/1999/xlink" xmlns="http://www.w3.org/2000/svg"><clipPath id="p.0"><path d="m0 0l960.0 0l0 720.0l-960.0 0l0 -720.0z" clip-rule="nonzero"/></clipPath><g clip-path="url(#p.0)"><path fill="#000000" fill-opacity="0.0" d="m0 0l960.0 0l0 720.0l-960.0 0z" fill-rule="evenodd"/><path fill="#ffffff" d="m340.0 206.57555l0 0c0 -20.648026 16.738525 -37.386566 37.386566 -37.386566l185.60483 0c9.915527 0 19.424927 3.9389343 26.43628 10.950272c7.0113525 7.0113373 10.950256 16.520767 10.950256 26.436295l0 149.54182c0 20.64804 -16.738525 37.386566 -37.386536 37.386566l-185.60483 0c-20.64804 0 -37.386566 -16.738525 -37.386566 -37.386566z" fill-rule="evenodd"/><path fill="#000000" fill-opacity="0.0" d="m346.55118 196.85301l253.82675 0l0 159.96852l-253.82675 0z" fill-rule="evenodd"/><path fill="#201144" d="m403.45743 319.5255q-20.875 0 -33.0 -10.609375q-12.125 -10.609375 -12.125 -29.984375q0 -11.828125 3.890625 -20.75q3.890625 -8.9375 10.953125 -14.28125q14.046875 -10.5625 37.015625 -10.5625q14.84375 0 29.6875 4.0625q5.6875 1.859375 5.6875 9.171875q0 9.96875 -6.265625 9.96875q-1.046875 0 -6.84375 -0.921875q-5.796875 -0.9375 -8.125 -0.9375q-8.234375 0 -12.703125 5.75q-4.453125 5.734375 -4.453125 13.6875q0 7.953125 4.171875 13.984375q4.171875 6.03125 11.359375 6.25q4.875 0.234375 17.296875 0.234375q6.03125 0 6.609375 5.6875q0.34375 2.09375 0.34375 4.234375q0 2.140625 -0.34375 4.34375q-0.703125 4.1875 -6.5 6.109375q-5.796875 1.90625 -16.703125 3.234375q-10.90625 1.328125 -19.953125 1.328125zm95.00821 -77.46875q4.296875 5.328125 9.859375 13.734375q5.5625 8.40625 7.765625 11.203125q2.203125 2.78125 3.53125 2.78125q1.34375 0 2.390625 -1.5q1.046875 -1.515625 7.65625 -11.609375q6.609375 -10.09375 10.890625 -15.375q4.296875 -5.28125 6.84375 -5.390625q2.5625 -0.125 6.625 -0.125q4.0625 0 9.515625 0.234375q5.453125 0.234375 7.25 2.84375q1.796875 2.609375 2.140625 7.375q0.703125 12.171875 0.703125 32.296875q0 20.125 -1.046875 31.734375q-0.234375 2.78125 -2.09375 4.984375q-1.859375 2.203125 -5.109375 2.203125q-7.0625 0.109375 -15.71875 0.109375q-8.640625 0 -13.734375 -0.34375q-1.859375 -0.109375 -3.3125 -1.4375q-1.453125 -1.34375 -1.5625 -3.546875l-0.703125 -19.140625q-0.109375 -2.78125 -1.21875 -3.125q-1.09375 -0.359375 -2.015625 1.5q-6.15625 10.90625 -15.3125 24.359375q-2.203125 3.359375 -5.8125 3.359375q-3.59375 0 -5.90625 -3.359375q-4.0625 -5.796875 -13.8125 -24.59375q-0.578125 -1.15625 -1.328125 -1.390625q-0.75 -0.234375 -1.34375 0.578125q-0.578125 0.8125 -0.578125 2.671875l-0.578125 19.140625q-0.109375 2.203125 -1.96875 3.546875q-1.859375 1.328125 -4.296875 1.4375l-11.484375 0q-3.125 -0.109375 -5.046875 -2.203125q-1.90625 -2.09375 -2.25 -4.75q-0.9375 -10.328125 -0.9375 -32.078125q0 -21.75 0.578125 -31.953125q0.359375 -4.875 2.203125 -7.546875q1.859375 -2.671875 6.625 -2.671875q24.359375 0 26.328125 0.359375q1.96875 0.34375 6.265625 5.6875z" fill-rule="nonzero"/></g></svg>