<svg width="48" height="48" viewBox="0 0 48 48" fill="none" xmlns="http://www.w3.org/2000/svg">
<circle cx="24" cy="24" r="22.5" transform="rotate(-90 24 24)" stroke="#FF7E7E" stroke-width="3"/>
<path d="M10.9374 22.9809C10.3525 23.5676 10.3541 24.5173 10.9408 25.1022L20.5022 34.6326C21.089 35.2175 22.0387 35.2159 22.6235 34.6292C23.2084 34.0424 23.2068 33.0927 22.6201 32.5079L14.1211 24.0364L22.5926 15.5373C23.1774 14.9506 23.1759 14.0008 22.5891 13.416C22.0024 12.8312 21.0526 12.8327 20.4678 13.4194L10.9374 22.9809ZM36.5254 24L36.523 22.5L11.9973 22.5398L11.9997 24.0398L12.0022 25.5398L36.5278 25.5L36.5254 24Z" fill="#FF7E7E"/>
</svg>
