<svg width="376" height="572" viewBox="0 0 376 572" fill="none" xmlns="http://www.w3.org/2000/svg">
<rect width="376" height="572" fill="#3A3A3A"/>
<path d="M122.28 255V220H125.98V255H122.28ZM169.418 228.5C171.551 228.5 173.401 228.917 174.968 229.75C176.568 230.55 177.801 231.783 178.668 233.45C179.568 235.117 180.018 237.217 180.018 239.75V255H176.468V240.1C176.468 237.333 175.801 235.25 174.468 233.85C173.168 232.417 171.318 231.7 168.918 231.7C167.118 231.7 165.551 232.083 164.218 232.85C162.918 233.583 161.901 234.667 161.168 236.1C160.468 237.5 160.118 239.2 160.118 241.2V255H156.568V240.1C156.568 237.333 155.901 235.25 154.568 233.85C153.235 232.417 151.368 231.7 148.968 231.7C147.201 231.7 145.651 232.083 144.318 232.85C142.985 233.583 141.951 234.667 141.218 236.1C140.518 237.5 140.168 239.2 140.168 241.2V255H136.618V228.75H140.018V235.85L139.468 234.6C140.268 232.7 141.551 231.217 143.318 230.15C145.118 229.05 147.235 228.5 149.668 228.5C152.235 228.5 154.418 229.15 156.218 230.45C158.018 231.717 159.185 233.633 159.718 236.2L158.318 235.65C159.085 233.517 160.435 231.8 162.368 230.5C164.335 229.167 166.685 228.5 169.418 228.5ZM206.095 255V249.2L205.945 248.25V238.55C205.945 236.317 205.312 234.6 204.045 233.4C202.812 232.2 200.962 231.6 198.495 231.6C196.795 231.6 195.179 231.883 193.645 232.45C192.112 233.017 190.812 233.767 189.745 234.7L188.145 232.05C189.479 230.917 191.079 230.05 192.945 229.45C194.812 228.817 196.779 228.5 198.845 228.5C202.245 228.5 204.862 229.35 206.695 231.05C208.562 232.717 209.495 235.267 209.495 238.7V255H206.095ZM197.045 255.25C195.079 255.25 193.362 254.933 191.895 254.3C190.462 253.633 189.362 252.733 188.595 251.6C187.829 250.433 187.445 249.1 187.445 247.6C187.445 246.233 187.762 245 188.395 243.9C189.062 242.767 190.129 241.867 191.595 241.2C193.095 240.5 195.095 240.15 197.595 240.15H206.645V242.8H197.695C195.162 242.8 193.395 243.25 192.395 244.15C191.429 245.05 190.945 246.167 190.945 247.5C190.945 249 191.529 250.2 192.695 251.1C193.862 252 195.495 252.45 197.595 252.45C199.595 252.45 201.312 252 202.745 251.1C204.212 250.167 205.279 248.833 205.945 247.1L206.745 249.55C206.079 251.283 204.912 252.667 203.245 253.7C201.612 254.733 199.545 255.25 197.045 255.25ZM230.338 264.95C227.938 264.95 225.638 264.6 223.438 263.9C221.238 263.2 219.454 262.2 218.088 260.9L219.888 258.2C221.121 259.3 222.638 260.167 224.438 260.8C226.271 261.467 228.204 261.8 230.238 261.8C233.571 261.8 236.021 261.017 237.588 259.45C239.154 257.917 239.938 255.517 239.938 252.25V245.7L240.438 241.2L240.088 236.7V228.75H243.488V251.8C243.488 256.333 242.371 259.65 240.138 261.75C237.938 263.883 234.671 264.95 230.338 264.95ZM229.688 254C227.188 254 224.938 253.467 222.938 252.4C220.938 251.3 219.354 249.783 218.188 247.85C217.054 245.917 216.488 243.7 216.488 241.2C216.488 238.7 217.054 236.5 218.188 234.6C219.354 232.667 220.938 231.167 222.938 230.1C224.938 229.033 227.188 228.5 229.688 228.5C232.021 228.5 234.121 228.983 235.988 229.95C237.854 230.917 239.338 232.35 240.438 234.25C241.538 236.15 242.088 238.467 242.088 241.2C242.088 243.933 241.538 246.25 240.438 248.15C239.338 250.05 237.854 251.5 235.988 252.5C234.121 253.5 232.021 254 229.688 254ZM230.038 250.85C231.971 250.85 233.688 250.45 235.188 249.65C236.688 248.817 237.871 247.683 238.738 246.25C239.604 244.783 240.038 243.1 240.038 241.2C240.038 239.3 239.604 237.633 238.738 236.2C237.871 234.767 236.688 233.65 235.188 232.85C233.688 232.017 231.971 231.6 230.038 231.6C228.138 231.6 226.421 232.017 224.888 232.85C223.388 233.65 222.204 234.767 221.338 236.2C220.504 237.633 220.088 239.3 220.088 241.2C220.088 243.1 220.504 244.783 221.338 246.25C222.204 247.683 223.388 248.817 224.888 249.65C226.421 250.45 228.138 250.85 230.038 250.85ZM264.516 255.25C261.783 255.25 259.383 254.683 257.316 253.55C255.249 252.383 253.633 250.8 252.466 248.8C251.299 246.767 250.716 244.45 250.716 241.85C250.716 239.25 251.266 236.95 252.366 234.95C253.499 232.95 255.033 231.383 256.966 230.25C258.933 229.083 261.133 228.5 263.566 228.5C266.033 228.5 268.216 229.067 270.116 230.2C272.049 231.3 273.566 232.867 274.666 234.9C275.766 236.9 276.316 239.217 276.316 241.85C276.316 242.017 276.299 242.2 276.266 242.4C276.266 242.567 276.266 242.75 276.266 242.95H253.416V240.3H274.366L272.966 241.35C272.966 239.45 272.549 237.767 271.716 236.3C270.916 234.8 269.816 233.633 268.416 232.8C267.016 231.967 265.399 231.55 263.566 231.55C261.766 231.55 260.149 231.967 258.716 232.8C257.283 233.633 256.166 234.8 255.366 236.3C254.566 237.8 254.166 239.517 254.166 241.45V242C254.166 244 254.599 245.767 255.466 247.3C256.366 248.8 257.599 249.983 259.166 250.85C260.766 251.683 262.583 252.1 264.616 252.1C266.216 252.1 267.699 251.817 269.066 251.25C270.466 250.683 271.666 249.817 272.666 248.65L274.666 250.95C273.499 252.35 272.033 253.417 270.266 254.15C268.533 254.883 266.616 255.25 264.516 255.25ZM58.2795 316.3C53.8128 316.3 50.2962 315.017 47.7295 312.45C45.1628 309.883 43.8795 306.083 43.8795 301.05V281H47.5795V300.9C47.5795 305.033 48.5128 308.083 50.3795 310.05C52.2462 312.017 54.8795 313 58.2795 313C61.7128 313 64.3628 312.017 66.2295 310.05C68.0962 308.083 69.0295 305.033 69.0295 300.9V281H72.6295V301.05C72.6295 306.083 71.3462 309.883 68.7795 312.45C66.2462 315.017 62.7462 316.3 58.2795 316.3ZM96.4291 289.5C98.5624 289.5 100.429 289.917 102.029 290.75C103.662 291.55 104.929 292.783 105.829 294.45C106.762 296.117 107.229 298.217 107.229 300.75V316H103.679V301.1C103.679 298.333 102.979 296.25 101.579 294.85C100.212 293.417 98.2791 292.7 95.7791 292.7C93.9124 292.7 92.2791 293.083 90.8791 293.85C89.5124 294.583 88.4458 295.667 87.6791 297.1C86.9458 298.5 86.5791 300.2 86.5791 302.2V316H83.0291V289.75H86.4291V296.95L85.8791 295.6C86.7124 293.7 88.0458 292.217 89.8791 291.15C91.7124 290.05 93.8958 289.5 96.4291 289.5ZM133.268 316V310.2L133.118 309.25V299.55C133.118 297.317 132.485 295.6 131.218 294.4C129.985 293.2 128.135 292.6 125.668 292.6C123.968 292.6 122.351 292.883 120.818 293.45C119.285 294.017 117.985 294.767 116.918 295.7L115.318 293.05C116.651 291.917 118.251 291.05 120.118 290.45C121.985 289.817 123.951 289.5 126.018 289.5C129.418 289.5 132.035 290.35 133.868 292.05C135.735 293.717 136.668 296.267 136.668 299.7V316H133.268ZM124.218 316.25C122.251 316.25 120.535 315.933 119.068 315.3C117.635 314.633 116.535 313.733 115.768 312.6C115.001 311.433 114.618 310.1 114.618 308.6C114.618 307.233 114.935 306 115.568 304.9C116.235 303.767 117.301 302.867 118.768 302.2C120.268 301.5 122.268 301.15 124.768 301.15H133.818V303.8H124.868C122.335 303.8 120.568 304.25 119.568 305.15C118.601 306.05 118.118 307.167 118.118 308.5C118.118 310 118.701 311.2 119.868 312.1C121.035 313 122.668 313.45 124.768 313.45C126.768 313.45 128.485 313 129.918 312.1C131.385 311.167 132.451 309.833 133.118 308.1L133.918 310.55C133.251 312.283 132.085 313.667 130.418 314.7C128.785 315.733 126.718 316.25 124.218 316.25ZM152.572 316L140.922 289.75H144.622L155.322 314.1H153.572L164.422 289.75H167.922L156.222 316H152.572ZM188.59 316V310.2L188.44 309.25V299.55C188.44 297.317 187.807 295.6 186.54 294.4C185.307 293.2 183.457 292.6 180.99 292.6C179.29 292.6 177.674 292.883 176.14 293.45C174.607 294.017 173.307 294.767 172.24 295.7L170.64 293.05C171.974 291.917 173.574 291.05 175.44 290.45C177.307 289.817 179.274 289.5 181.34 289.5C184.74 289.5 187.357 290.35 189.19 292.05C191.057 293.717 191.99 296.267 191.99 299.7V316H188.59ZM179.54 316.25C177.574 316.25 175.857 315.933 174.39 315.3C172.957 314.633 171.857 313.733 171.09 312.6C170.324 311.433 169.94 310.1 169.94 308.6C169.94 307.233 170.257 306 170.89 304.9C171.557 303.767 172.624 302.867 174.09 302.2C175.59 301.5 177.59 301.15 180.09 301.15H189.14V303.8H180.19C177.657 303.8 175.89 304.25 174.89 305.15C173.924 306.05 173.44 307.167 173.44 308.5C173.44 310 174.024 311.2 175.19 312.1C176.357 313 177.99 313.45 180.09 313.45C182.09 313.45 183.807 313 185.24 312.1C186.707 311.167 187.774 309.833 188.44 308.1L189.24 310.55C188.574 312.283 187.407 313.667 185.74 314.7C184.107 315.733 182.04 316.25 179.54 316.25ZM201.633 316V289.75H205.183V316H201.633ZM203.433 283.95C202.699 283.95 202.083 283.7 201.583 283.2C201.083 282.7 200.833 282.1 200.833 281.4C200.833 280.7 201.083 280.117 201.583 279.65C202.083 279.15 202.699 278.9 203.433 278.9C204.166 278.9 204.783 279.133 205.283 279.6C205.783 280.067 206.033 280.65 206.033 281.35C206.033 282.083 205.783 282.7 205.283 283.2C204.816 283.7 204.199 283.95 203.433 283.95ZM215.06 316V278.9H218.61V316H215.06ZM244.938 316V310.2L244.788 309.25V299.55C244.788 297.317 244.155 295.6 242.888 294.4C241.655 293.2 239.805 292.6 237.338 292.6C235.638 292.6 234.021 292.883 232.488 293.45C230.955 294.017 229.655 294.767 228.588 295.7L226.988 293.05C228.321 291.917 229.921 291.05 231.788 290.45C233.655 289.817 235.621 289.5 237.688 289.5C241.088 289.5 243.705 290.35 245.538 292.05C247.405 293.717 248.338 296.267 248.338 299.7V316H244.938ZM235.888 316.25C233.921 316.25 232.205 315.933 230.738 315.3C229.305 314.633 228.205 313.733 227.438 312.6C226.671 311.433 226.288 310.1 226.288 308.6C226.288 307.233 226.605 306 227.238 304.9C227.905 303.767 228.971 302.867 230.438 302.2C231.938 301.5 233.938 301.15 236.438 301.15H245.488V303.8H236.538C234.005 303.8 232.238 304.25 231.238 305.15C230.271 306.05 229.788 307.167 229.788 308.5C229.788 310 230.371 311.2 231.538 312.1C232.705 313 234.338 313.45 236.438 313.45C238.438 313.45 240.155 313 241.588 312.1C243.055 311.167 244.121 309.833 244.788 308.1L245.588 310.55C244.921 312.283 243.755 313.667 242.088 314.7C240.455 315.733 238.388 316.25 235.888 316.25ZM271.53 316.25C269.23 316.25 267.164 315.733 265.33 314.7C263.497 313.633 262.047 312.1 260.98 310.1C259.914 308.1 259.38 305.683 259.38 302.85C259.38 299.983 259.914 297.567 260.98 295.6C262.08 293.6 263.547 292.083 265.38 291.05C267.214 290.017 269.264 289.5 271.53 289.5C274.03 289.5 276.264 290.067 278.23 291.2C280.23 292.3 281.797 293.85 282.93 295.85C284.064 297.85 284.63 300.183 284.63 302.85C284.63 305.483 284.064 307.817 282.93 309.85C281.797 311.85 280.23 313.417 278.23 314.55C276.264 315.683 274.03 316.25 271.53 316.25ZM257.98 316V278.9H261.53V297.5L261.03 302.8L261.38 308.1V316H257.98ZM271.28 313.1C273.147 313.1 274.814 312.683 276.28 311.85C277.747 310.983 278.914 309.783 279.78 308.25C280.647 306.683 281.08 304.883 281.08 302.85C281.08 300.783 280.647 298.983 279.78 297.45C278.914 295.917 277.747 294.733 276.28 293.9C274.814 293.033 273.147 292.6 271.28 292.6C269.414 292.6 267.73 293.033 266.23 293.9C264.764 294.733 263.597 295.917 262.73 297.45C261.897 298.983 261.48 300.783 261.48 302.85C261.48 304.883 261.897 306.683 262.73 308.25C263.597 309.783 264.764 310.983 266.23 311.85C267.73 312.683 269.414 313.1 271.28 313.1ZM291.867 316V278.9H295.417V316H291.867ZM316.445 316.25C313.711 316.25 311.311 315.683 309.245 314.55C307.178 313.383 305.561 311.8 304.395 309.8C303.228 307.767 302.645 305.45 302.645 302.85C302.645 300.25 303.195 297.95 304.295 295.95C305.428 293.95 306.961 292.383 308.895 291.25C310.861 290.083 313.061 289.5 315.495 289.5C317.961 289.5 320.145 290.067 322.045 291.2C323.978 292.3 325.495 293.867 326.595 295.9C327.695 297.9 328.245 300.217 328.245 302.85C328.245 303.017 328.228 303.2 328.195 303.4C328.195 303.567 328.195 303.75 328.195 303.95H305.345V301.3H326.295L324.895 302.35C324.895 300.45 324.478 298.767 323.645 297.3C322.845 295.8 321.745 294.633 320.345 293.8C318.945 292.967 317.328 292.55 315.495 292.55C313.695 292.55 312.078 292.967 310.645 293.8C309.211 294.633 308.095 295.8 307.295 297.3C306.495 298.8 306.095 300.517 306.095 302.45V303C306.095 305 306.528 306.767 307.395 308.3C308.295 309.8 309.528 310.983 311.095 311.85C312.695 312.683 314.511 313.1 316.545 313.1C318.145 313.1 319.628 312.817 320.995 312.25C322.395 311.683 323.595 310.817 324.595 309.65L326.595 311.95C325.428 313.35 323.961 314.417 322.195 315.15C320.461 315.883 318.545 316.25 316.445 316.25Z" fill="#8D8D8D"/>
<path fill-rule="evenodd" clip-rule="evenodd" d="M376 67.78L363.467 72.6214C350.933 77.4629 325.867 87.1457 300.8 88.7595C275.733 90.3733 250.667 83.9181 225.6 67.78C200.533 51.6419 175.467 25.8209 150.4 25.8209C125.333 25.8209 101.267 48.1419 76.2 49.7557C51.1333 51.3695 28.5333 27.2967 16 16L0 0H12.5333C25.0667 0 50.1333 0 75.2 0C100.267 0 125.333 0 150.4 0C175.467 0 200.533 0 225.6 0C250.667 0 275.733 0 300.8 0C325.867 0 350.933 0 363.467 0H376V67.78Z" fill="#8D8D8D"/>
<path fill-rule="evenodd" clip-rule="evenodd" d="M0 504.22L12.5333 499.379C25.0667 494.537 50.1333 484.854 75.2 483.24C100.267 481.627 125.333 488.082 150.4 504.22C175.467 520.358 200.533 546.179 225.6 546.179C250.667 546.179 274.733 523.858 299.8 522.244C324.867 520.63 347.467 544.703 360 556L376 572H363.467C350.933 572 325.867 572 300.8 572C275.733 572 250.667 572 225.6 572C200.533 572 175.467 572 150.4 572C125.333 572 100.267 572 75.2 572C50.1333 572 25.0667 572 12.5333 572H0L0 504.22Z" fill="#8D8D8D"/>
</svg>
