<svg width="252" height="252" viewBox="0 0 252 252" fill="none" xmlns="http://www.w3.org/2000/svg">
<path d="M126 0C179.472 0 225.162 33.3103 243.458 80.3115L233.778 73.9355C223.604 66.547 202.264 51.8045 181.562 55.6104C160.912 60.9621 140.899 84.8618 120.144 87.1221C99.3877 89.3822 77.9418 71.5478 56.6553 58.3506C47.4558 52.6471 38.2957 48.0986 29.9668 44.4277C53.0785 17.2456 87.525 0 126 0Z" fill="#A2A2A2" fill-opacity="0.83"/>
<circle cx="126" cy="126" r="125.5" fill="#A2A2A2" fill-opacity="0.2" stroke="white"/>
<path d="M41.8182 141V134.76L42.2262 135.864L35.0982 124.2H36.9942L43.2582 134.448H42.2502L48.5142 124.2H50.2902L43.1622 135.864L43.5702 134.76V141H41.8182ZM56.3909 141.12C55.1749 141.12 54.0789 140.848 53.1029 140.304C52.1429 139.744 51.3829 138.984 50.8229 138.024C50.2629 137.048 49.9829 135.936 49.9829 134.688C49.9829 133.424 50.2629 132.312 50.8229 131.352C51.3829 130.392 52.1429 129.64 53.1029 129.096C54.0629 128.552 55.1589 128.28 56.3909 128.28C57.6389 128.28 58.7429 128.552 59.7029 129.096C60.6789 129.64 61.4389 130.392 61.9829 131.352C62.5429 132.312 62.8229 133.424 62.8229 134.688C62.8229 135.936 62.5429 137.048 61.9829 138.024C61.4389 138.984 60.6789 139.744 59.7029 140.304C58.7269 140.848 57.6229 141.12 56.3909 141.12ZM56.3909 139.608C57.3029 139.608 58.1109 139.408 58.8149 139.008C59.5189 138.592 60.0709 138.016 60.4709 137.28C60.8869 136.528 61.0949 135.664 61.0949 134.688C61.0949 133.696 60.8869 132.832 60.4709 132.096C60.0709 131.36 59.5189 130.792 58.8149 130.392C58.1109 129.976 57.3109 129.768 56.4149 129.768C55.5189 129.768 54.7189 129.976 54.0149 130.392C53.3109 130.792 52.7509 131.36 52.3349 132.096C51.9189 132.832 51.7109 133.696 51.7109 134.688C51.7109 135.664 51.9189 136.528 52.3349 137.28C52.7509 138.016 53.3109 138.592 54.0149 139.008C54.7189 139.408 55.5109 139.608 56.3909 139.608ZM71.5098 141.12C70.4378 141.12 69.5018 140.92 68.7018 140.52C67.9018 140.12 67.2778 139.52 66.8298 138.72C66.3978 137.92 66.1818 136.92 66.1818 135.72V128.4H67.8858V135.528C67.8858 136.872 68.2138 137.888 68.8698 138.576C69.5418 139.248 70.4778 139.584 71.6778 139.584C72.5578 139.584 73.3178 139.408 73.9578 139.056C74.6138 138.688 75.1098 138.16 75.4458 137.472C75.7978 136.784 75.9738 135.96 75.9738 135V128.4H77.6778V141H76.0458V137.544L76.3098 138.168C75.9098 139.096 75.2858 139.824 74.4378 140.352C73.6058 140.864 72.6298 141.12 71.5098 141.12ZM82.4268 141V128.4H84.0588V131.832L83.8908 131.232C84.2428 130.272 84.8348 129.544 85.6668 129.048C86.4988 128.536 87.5308 128.28 88.7628 128.28V129.936C88.6988 129.936 88.6348 129.936 88.5708 129.936C88.5068 129.92 88.4428 129.912 88.3788 129.912C87.0508 129.912 86.0108 130.32 85.2588 131.136C84.5068 131.936 84.1308 133.08 84.1308 134.568V141H82.4268ZM106.237 141V138.216L106.165 137.76V133.104C106.165 132.032 105.861 131.208 105.253 130.632C104.661 130.056 103.773 129.768 102.589 129.768C101.773 129.768 100.997 129.904 100.261 130.176C99.5248 130.448 98.9008 130.808 98.3888 131.256L97.6208 129.984C98.2608 129.44 99.0288 129.024 99.9248 128.736C100.821 128.432 101.765 128.28 102.757 128.28C104.389 128.28 105.645 128.688 106.525 129.504C107.421 130.304 107.869 131.528 107.869 133.176V141H106.237ZM101.893 141.12C100.949 141.12 100.125 140.968 99.4208 140.664C98.7328 140.344 98.2048 139.912 97.8368 139.368C97.4688 138.808 97.2848 138.168 97.2848 137.448C97.2848 136.792 97.4368 136.2 97.7408 135.672C98.0608 135.128 98.5728 134.696 99.2768 134.376C99.9968 134.04 100.957 133.872 102.157 133.872H106.501V135.144H102.205C100.989 135.144 100.141 135.36 99.6608 135.792C99.1968 136.224 98.9648 136.76 98.9648 137.4C98.9648 138.12 99.2448 138.696 99.8048 139.128C100.365 139.56 101.149 139.776 102.157 139.776C103.117 139.776 103.941 139.56 104.629 139.128C105.333 138.68 105.845 138.04 106.165 137.208L106.549 138.384C106.229 139.216 105.669 139.88 104.869 140.376C104.085 140.872 103.093 141.12 101.893 141.12ZM115.503 141L109.911 128.4H111.687L116.823 140.088H115.983L121.191 128.4H122.871L117.255 141H115.503ZM132.792 141V138.216L132.72 137.76V133.104C132.72 132.032 132.416 131.208 131.808 130.632C131.216 130.056 130.328 129.768 129.144 129.768C128.328 129.768 127.552 129.904 126.816 130.176C126.08 130.448 125.456 130.808 124.944 131.256L124.176 129.984C124.816 129.44 125.584 129.024 126.48 128.736C127.376 128.432 128.32 128.28 129.312 128.28C130.944 128.28 132.2 128.688 133.08 129.504C133.976 130.304 134.424 131.528 134.424 133.176V141H132.792ZM128.448 141.12C127.504 141.12 126.68 140.968 125.976 140.664C125.288 140.344 124.76 139.912 124.392 139.368C124.024 138.808 123.84 138.168 123.84 137.448C123.84 136.792 123.992 136.2 124.296 135.672C124.616 135.128 125.128 134.696 125.832 134.376C126.552 134.04 127.512 133.872 128.712 133.872H133.056V135.144H128.76C127.544 135.144 126.696 135.36 126.216 135.792C125.752 136.224 125.52 136.76 125.52 137.4C125.52 138.12 125.8 138.696 126.36 139.128C126.92 139.56 127.704 139.776 128.712 139.776C129.672 139.776 130.496 139.56 131.184 139.128C131.888 138.68 132.4 138.04 132.72 137.208L133.104 138.384C132.784 139.216 132.224 139.88 131.424 140.376C130.64 140.872 129.648 141.12 128.448 141.12ZM143.036 141.12C141.852 141.12 140.94 140.8 140.3 140.16C139.66 139.52 139.34 138.616 139.34 137.448V125.616H141.044V137.352C141.044 138.088 141.228 138.656 141.596 139.056C141.98 139.456 142.524 139.656 143.228 139.656C143.98 139.656 144.604 139.44 145.1 139.008L145.7 140.232C145.364 140.536 144.956 140.76 144.476 140.904C144.012 141.048 143.532 141.12 143.036 141.12ZM137.084 129.816V128.4H144.884V129.816H137.084ZM156.698 141V138.216L156.626 137.76V133.104C156.626 132.032 156.322 131.208 155.714 130.632C155.122 130.056 154.234 129.768 153.05 129.768C152.234 129.768 151.458 129.904 150.722 130.176C149.986 130.448 149.362 130.808 148.85 131.256L148.082 129.984C148.722 129.44 149.49 129.024 150.386 128.736C151.282 128.432 152.226 128.28 153.218 128.28C154.85 128.28 156.106 128.688 156.986 129.504C157.882 130.304 158.33 131.528 158.33 133.176V141H156.698ZM152.354 141.12C151.41 141.12 150.586 140.968 149.882 140.664C149.194 140.344 148.666 139.912 148.298 139.368C147.93 138.808 147.746 138.168 147.746 137.448C147.746 136.792 147.898 136.2 148.202 135.672C148.522 135.128 149.034 134.696 149.738 134.376C150.458 134.04 151.418 133.872 152.618 133.872H156.962V135.144H152.666C151.45 135.144 150.602 135.36 150.122 135.792C149.658 136.224 149.426 136.76 149.426 137.4C149.426 138.12 149.706 138.696 150.266 139.128C150.826 139.56 151.61 139.776 152.618 139.776C153.578 139.776 154.402 139.56 155.09 139.128C155.794 138.68 156.306 138.04 156.626 137.208L157.01 138.384C156.69 139.216 156.13 139.88 155.33 140.376C154.546 140.872 153.554 141.12 152.354 141.12ZM162.958 141V128.4H164.59V131.832L164.422 131.232C164.774 130.272 165.366 129.544 166.198 129.048C167.03 128.536 168.062 128.28 169.294 128.28V129.936C169.23 129.936 169.166 129.936 169.102 129.936C169.038 129.92 168.974 129.912 168.91 129.912C167.582 129.912 166.542 130.32 165.79 131.136C165.038 131.936 164.662 133.08 164.662 134.568V141H162.958ZM181.44 141L176.688 128.4H178.32L182.64 140.088H181.896L186.336 128.4H187.8L192.192 140.088H191.448L195.84 128.4H197.4L192.624 141H191.016L186.792 130.008H187.296L183.048 141H181.44ZM199.966 141V128.4H201.67V141H199.966ZM200.83 125.616C200.478 125.616 200.182 125.496 199.942 125.256C199.702 125.016 199.582 124.728 199.582 124.392C199.582 124.056 199.702 123.776 199.942 123.552C200.182 123.312 200.478 123.192 200.83 123.192C201.182 123.192 201.478 123.304 201.718 123.528C201.958 123.752 202.078 124.032 202.078 124.368C202.078 124.72 201.958 125.016 201.718 125.256C201.494 125.496 201.198 125.616 200.83 125.616ZM206.411 141V123.192H208.115V141H206.411ZM212.856 141V123.192H214.56V141H212.856ZM63.5689 170V167.216L63.4969 166.76V162.104C63.4969 161.032 63.1929 160.208 62.5849 159.632C61.9929 159.056 61.1049 158.768 59.9209 158.768C59.1049 158.768 58.3289 158.904 57.5929 159.176C56.8569 159.448 56.2329 159.808 55.7209 160.256L54.9529 158.984C55.5929 158.44 56.3609 158.024 57.2569 157.736C58.1529 157.432 59.0969 157.28 60.0889 157.28C61.7209 157.28 62.9769 157.688 63.8569 158.504C64.7529 159.304 65.2009 160.528 65.2009 162.176V170H63.5689ZM59.2249 170.12C58.2809 170.12 57.4569 169.968 56.7529 169.664C56.0649 169.344 55.5369 168.912 55.1689 168.368C54.8009 167.808 54.6169 167.168 54.6169 166.448C54.6169 165.792 54.7689 165.2 55.0729 164.672C55.3929 164.128 55.9049 163.696 56.6089 163.376C57.3289 163.04 58.2889 162.872 59.4889 162.872H63.8329V164.144H59.5369C58.3209 164.144 57.4729 164.36 56.9929 164.792C56.5289 165.224 56.2969 165.76 56.2969 166.4C56.2969 167.12 56.5769 167.696 57.1369 168.128C57.6969 168.56 58.4809 168.776 59.4889 168.776C60.4489 168.776 61.2729 168.56 61.9609 168.128C62.6649 167.68 63.1769 167.04 63.4969 166.208L63.8809 167.384C63.5609 168.216 63.0009 168.88 62.2009 169.376C61.4169 169.872 60.4249 170.12 59.2249 170.12ZM76.3331 170.12C75.2451 170.12 74.2611 169.872 73.3811 169.376C72.5011 168.864 71.7971 168.136 71.2691 167.192C70.7571 166.232 70.5011 165.064 70.5011 163.688C70.5011 162.312 70.7571 161.152 71.2691 160.208C71.7811 159.248 72.4771 158.52 73.3571 158.024C74.2371 157.528 75.2291 157.28 76.3331 157.28C77.5331 157.28 78.6051 157.552 79.5491 158.096C80.5091 158.624 81.2611 159.376 81.8051 160.352C82.3491 161.312 82.6211 162.424 82.6211 163.688C82.6211 164.968 82.3491 166.088 81.8051 167.048C81.2611 168.008 80.5091 168.76 79.5491 169.304C78.6051 169.848 77.5331 170.12 76.3331 170.12ZM69.8291 174.656V157.4H71.4611V161.192L71.2931 163.712L71.5331 166.256V174.656H69.8291ZM76.2131 168.608C77.1091 168.608 77.9091 168.408 78.6131 168.008C79.3171 167.592 79.8771 167.016 80.2931 166.28C80.7091 165.528 80.9171 164.664 80.9171 163.688C80.9171 162.712 80.7091 161.856 80.2931 161.12C79.8771 160.384 79.3171 159.808 78.6131 159.392C77.9091 158.976 77.1091 158.768 76.2131 158.768C75.3171 158.768 74.5091 158.976 73.7891 159.392C73.0851 159.808 72.5251 160.384 72.1091 161.12C71.7091 161.856 71.5091 162.712 71.5091 163.688C71.5091 164.664 71.7091 165.528 72.1091 166.28C72.5251 167.016 73.0851 167.592 73.7891 168.008C74.5091 168.408 75.3171 168.608 76.2131 168.608ZM92.5988 170.12C91.5108 170.12 90.5268 169.872 89.6468 169.376C88.7668 168.864 88.0628 168.136 87.5348 167.192C87.0228 166.232 86.7668 165.064 86.7668 163.688C86.7668 162.312 87.0228 161.152 87.5348 160.208C88.0468 159.248 88.7428 158.52 89.6228 158.024C90.5028 157.528 91.4948 157.28 92.5988 157.28C93.7988 157.28 94.8708 157.552 95.8148 158.096C96.7748 158.624 97.5268 159.376 98.0708 160.352C98.6148 161.312 98.8868 162.424 98.8868 163.688C98.8868 164.968 98.6148 166.088 98.0708 167.048C97.5268 168.008 96.7748 168.76 95.8148 169.304C94.8708 169.848 93.7988 170.12 92.5988 170.12ZM86.0948 174.656V157.4H87.7268V161.192L87.5588 163.712L87.7988 166.256V174.656H86.0948ZM92.4788 168.608C93.3748 168.608 94.1748 168.408 94.8788 168.008C95.5828 167.592 96.1428 167.016 96.5588 166.28C96.9748 165.528 97.1828 164.664 97.1828 163.688C97.1828 162.712 96.9748 161.856 96.5588 161.12C96.1428 160.384 95.5828 159.808 94.8788 159.392C94.1748 158.976 93.3748 158.768 92.4788 158.768C91.5828 158.768 90.7748 158.976 90.0547 159.392C89.3508 159.808 88.7908 160.384 88.3748 161.12C87.9748 161.856 87.7748 162.712 87.7748 163.688C87.7748 164.664 87.9748 165.528 88.3748 166.28C88.7908 167.016 89.3508 167.592 90.0547 168.008C90.7748 168.408 91.5828 168.608 92.4788 168.608ZM107.712 170.12C106.4 170.12 105.248 169.848 104.256 169.304C103.264 168.744 102.488 167.984 101.928 167.024C101.368 166.048 101.088 164.936 101.088 163.688C101.088 162.44 101.352 161.336 101.88 160.376C102.424 159.416 103.16 158.664 104.088 158.12C105.032 157.56 106.088 157.28 107.256 157.28C108.44 157.28 109.488 157.552 110.4 158.096C111.328 158.624 112.056 159.376 112.584 160.352C113.112 161.312 113.376 162.424 113.376 163.688C113.376 163.768 113.368 163.856 113.352 163.952C113.352 164.032 113.352 164.12 113.352 164.216H102.384V162.944H112.44L111.768 163.448C111.768 162.536 111.568 161.728 111.168 161.024C110.784 160.304 110.256 159.744 109.584 159.344C108.912 158.944 108.136 158.744 107.256 158.744C106.392 158.744 105.616 158.944 104.928 159.344C104.24 159.744 103.704 160.304 103.32 161.024C102.936 161.744 102.744 162.568 102.744 163.496V163.76C102.744 164.72 102.952 165.568 103.368 166.304C103.8 167.024 104.392 167.592 105.144 168.008C105.912 168.408 106.784 168.608 107.76 168.608C108.528 168.608 109.24 168.472 109.896 168.2C110.568 167.928 111.144 167.512 111.624 166.952L112.584 168.056C112.024 168.728 111.32 169.24 110.472 169.592C109.64 169.944 108.72 170.12 107.712 170.12ZM124.389 170V167.216L124.317 166.76V162.104C124.317 161.032 124.013 160.208 123.405 159.632C122.813 159.056 121.925 158.768 120.741 158.768C119.925 158.768 119.149 158.904 118.413 159.176C117.677 159.448 117.053 159.808 116.541 160.256L115.773 158.984C116.413 158.44 117.181 158.024 118.077 157.736C118.973 157.432 119.917 157.28 120.909 157.28C122.541 157.28 123.797 157.688 124.677 158.504C125.573 159.304 126.021 160.528 126.021 162.176V170H124.389ZM120.045 170.12C119.101 170.12 118.277 169.968 117.573 169.664C116.885 169.344 116.357 168.912 115.989 168.368C115.621 167.808 115.437 167.168 115.437 166.448C115.437 165.792 115.589 165.2 115.893 164.672C116.213 164.128 116.725 163.696 117.429 163.376C118.149 163.04 119.109 162.872 120.309 162.872H124.653V164.144H120.357C119.141 164.144 118.293 164.36 117.813 164.792C117.349 165.224 117.117 165.76 117.117 166.4C117.117 167.12 117.397 167.696 117.957 168.128C118.517 168.56 119.301 168.776 120.309 168.776C121.269 168.776 122.093 168.56 122.781 168.128C123.485 167.68 123.997 167.04 124.317 166.208L124.701 167.384C124.381 168.216 123.821 168.88 123.021 169.376C122.237 169.872 121.245 170.12 120.045 170.12ZM130.649 170V157.4H132.281V160.832L132.113 160.232C132.465 159.272 133.057 158.544 133.889 158.048C134.721 157.536 135.753 157.28 136.985 157.28V158.936C136.921 158.936 136.857 158.936 136.793 158.936C136.729 158.92 136.665 158.912 136.601 158.912C135.273 158.912 134.233 159.32 133.481 160.136C132.729 160.936 132.353 162.08 132.353 163.568V170H130.649ZM152.996 157.28C154.02 157.28 154.916 157.48 155.684 157.88C156.468 158.264 157.076 158.856 157.508 159.656C157.956 160.456 158.18 161.464 158.18 162.68V170H156.476V162.848C156.476 161.52 156.14 160.52 155.468 159.848C154.812 159.16 153.884 158.816 152.684 158.816C151.788 158.816 151.004 159 150.332 159.368C149.676 159.72 149.164 160.24 148.796 160.928C148.444 161.6 148.268 162.416 148.268 163.376V170H146.564V152.192H148.268V160.856L147.932 160.208C148.332 159.296 148.972 158.584 149.852 158.072C150.732 157.544 151.78 157.28 152.996 157.28ZM168.134 170.12C166.822 170.12 165.67 169.848 164.678 169.304C163.686 168.744 162.91 167.984 162.35 167.024C161.79 166.048 161.51 164.936 161.51 163.688C161.51 162.44 161.774 161.336 162.302 160.376C162.846 159.416 163.582 158.664 164.51 158.12C165.454 157.56 166.51 157.28 167.678 157.28C168.862 157.28 169.91 157.552 170.822 158.096C171.75 158.624 172.478 159.376 173.006 160.352C173.534 161.312 173.798 162.424 173.798 163.688C173.798 163.768 173.79 163.856 173.774 163.952C173.774 164.032 173.774 164.12 173.774 164.216H162.806V162.944H172.862L172.19 163.448C172.19 162.536 171.99 161.728 171.59 161.024C171.206 160.304 170.678 159.744 170.006 159.344C169.334 158.944 168.558 158.744 167.678 158.744C166.814 158.744 166.038 158.944 165.35 159.344C164.662 159.744 164.126 160.304 163.742 161.024C163.358 161.744 163.166 162.568 163.166 163.496V163.76C163.166 164.72 163.374 165.568 163.79 166.304C164.222 167.024 164.814 167.592 165.566 168.008C166.334 168.408 167.206 168.608 168.182 168.608C168.95 168.608 169.662 168.472 170.318 168.2C170.99 167.928 171.566 167.512 172.046 166.952L173.006 168.056C172.446 168.728 171.742 169.24 170.894 169.592C170.062 169.944 169.142 170.12 168.134 170.12ZM177.267 170V157.4H178.899V160.832L178.731 160.232C179.083 159.272 179.675 158.544 180.507 158.048C181.339 157.536 182.371 157.28 183.603 157.28V158.936C183.539 158.936 183.475 158.936 183.411 158.936C183.347 158.92 183.283 158.912 183.219 158.912C181.891 158.912 180.851 159.32 180.099 160.136C179.347 160.936 178.971 162.08 178.971 163.568V170H177.267ZM191.947 170.12C190.635 170.12 189.483 169.848 188.491 169.304C187.499 168.744 186.723 167.984 186.163 167.024C185.603 166.048 185.323 164.936 185.323 163.688C185.323 162.44 185.587 161.336 186.115 160.376C186.659 159.416 187.395 158.664 188.323 158.12C189.267 157.56 190.323 157.28 191.491 157.28C192.675 157.28 193.723 157.552 194.635 158.096C195.563 158.624 196.291 159.376 196.819 160.352C197.347 161.312 197.611 162.424 197.611 163.688C197.611 163.768 197.603 163.856 197.587 163.952C197.587 164.032 197.587 164.12 197.587 164.216H186.619V162.944H196.675L196.003 163.448C196.003 162.536 195.803 161.728 195.403 161.024C195.019 160.304 194.491 159.744 193.819 159.344C193.147 158.944 192.371 158.744 191.491 158.744C190.627 158.744 189.851 158.944 189.163 159.344C188.475 159.744 187.939 160.304 187.555 161.024C187.171 161.744 186.979 162.568 186.979 163.496V163.76C186.979 164.72 187.187 165.568 187.603 166.304C188.035 167.024 188.627 167.592 189.379 168.008C190.147 168.408 191.019 168.608 191.995 168.608C192.763 168.608 193.475 168.472 194.131 168.2C194.803 167.928 195.379 167.512 195.859 166.952L196.819 168.056C196.259 168.728 195.555 169.24 194.707 169.592C193.875 169.944 192.955 170.12 191.947 170.12Z" fill="white"/>
</svg>
